<svg id="Group_5452" data-name="Group 5452" xmlns="http://www.w3.org/2000/svg" width="18" height="18" viewBox="0 0 18 18">
  <path id="Path_19711" data-name="Path 19711" d="M13.691,56.317a1.261,1.261,0,0,0-1.907,0c-.446.442-.891.884-1.33,1.333a.263.263,0,0,1-.367.067c-.288-.157-.6-.285-.873-.457a13.828,13.828,0,0,1-3.334-3.034,7.9,7.9,0,0,1-1.195-1.914.274.274,0,0,1,.067-.352c.446-.431.88-.873,1.318-1.315a1.266,1.266,0,0,0,0-1.952c-.348-.352-.7-.7-1.045-1.049s-.715-.723-1.079-1.079a1.269,1.269,0,0,0-1.907,0c-.449.442-.88.9-1.337,1.33a2.171,2.171,0,0,0-.682,1.465A6.205,6.205,0,0,0,.5,52.036a16.229,16.229,0,0,0,2.88,4.8,17.825,17.825,0,0,0,5.9,4.618,8.538,8.538,0,0,0,3.27.951,2.4,2.4,0,0,0,2.056-.783c.382-.427.813-.817,1.217-1.225a1.274,1.274,0,0,0,.007-1.94Q14.766,57.383,13.691,56.317Z" transform="translate(-0.006 -44.409)" fill="#fff"/>
  <path id="Path_19712" data-name="Path 19712" d="M241.914,101.326l1.382-.236A6.2,6.2,0,0,0,238.049,96l-.195,1.39a4.795,4.795,0,0,1,4.06,3.937Z" transform="translate(-228.945 -92.404)" fill="#fff"/>
  <path id="Path_19713" data-name="Path 19713" d="M248.792,2.914A10.192,10.192,0,0,0,242.949,0l-.195,1.39a8.893,8.893,0,0,1,7.525,7.293l1.382-.236A10.266,10.266,0,0,0,248.792,2.914Z" transform="translate(-233.661)" fill="#fff"/>
</svg>
