<svg xmlns="http://www.w3.org/2000/svg" width="137.12" height="21.48" viewBox="0 0 137.12 21.48">
  <g id="Group_4851" data-name="Group 4851" transform="translate(0.99 1.001)">
    <path id="Star_fill-1" d="M7.868,3.353C8.718,1.235,9.143.176,9.833.029a1.323,1.323,0,0,1,.551,0c.69.147,1.115,1.206,1.965,3.324A5.873,5.873,0,0,0,13.525,5.57a2.647,2.647,0,0,0,.411.306,5.937,5.937,0,0,0,2.479.49c2.208.2,3.313.3,3.65.926a1.325,1.325,0,0,1,.141.418c.112.705-.7,1.444-2.324,2.921l-.451.41a5.847,5.847,0,0,0-1.358,1.467,2.647,2.647,0,0,0-.261.824,5.854,5.854,0,0,0,.264,1.981l.079.358c.4,1.8.6,2.695.349,3.137a1.323,1.323,0,0,1-1.09.672c-.506.024-1.219-.557-2.646-1.72a6.23,6.23,0,0,0-1.932-1.3,2.646,2.646,0,0,0-1.459,0,6.229,6.229,0,0,0-1.932,1.3C6.02,18.923,5.307,19.5,4.8,19.48a1.323,1.323,0,0,1-1.09-.672c-.249-.442-.049-1.34.349-3.137l.079-.358A5.849,5.849,0,0,0,4.4,13.332a2.647,2.647,0,0,0-.261-.824,5.849,5.849,0,0,0-1.358-1.467l-.451-.41C.71,9.154-.1,8.415.01,7.71a1.323,1.323,0,0,1,.14-.418c.337-.63,1.441-.729,3.65-.926a5.937,5.937,0,0,0,2.479-.49,2.646,2.646,0,0,0,.411-.306A5.872,5.872,0,0,0,7.868,3.353Z" transform="translate(0 0)" fill="#faaf19" stroke="#faaf19" stroke-width="2"/>
    <path id="Star_fill-1-2" data-name="Star_fill-1" d="M7.868,3.353C8.718,1.235,9.143.176,9.833.029a1.323,1.323,0,0,1,.551,0c.69.147,1.115,1.206,1.965,3.324A5.873,5.873,0,0,0,13.525,5.57a2.647,2.647,0,0,0,.411.306,5.937,5.937,0,0,0,2.479.49c2.208.2,3.313.3,3.65.926a1.325,1.325,0,0,1,.141.418c.112.705-.7,1.444-2.324,2.921l-.451.41a5.847,5.847,0,0,0-1.358,1.467,2.647,2.647,0,0,0-.261.824,5.854,5.854,0,0,0,.264,1.981l.079.358c.4,1.8.6,2.695.349,3.137a1.323,1.323,0,0,1-1.09.672c-.506.024-1.219-.557-2.646-1.72a6.23,6.23,0,0,0-1.932-1.3,2.646,2.646,0,0,0-1.459,0,6.229,6.229,0,0,0-1.932,1.3C6.02,18.923,5.307,19.5,4.8,19.48a1.323,1.323,0,0,1-1.09-.672c-.249-.442-.049-1.34.349-3.137l.079-.358A5.849,5.849,0,0,0,4.4,13.332a2.647,2.647,0,0,0-.261-.824,5.849,5.849,0,0,0-1.358-1.467l-.451-.41C.71,9.154-.1,8.415.01,7.71a1.323,1.323,0,0,1,.14-.418c.337-.63,1.441-.729,3.65-.926a5.937,5.937,0,0,0,2.479-.49,2.646,2.646,0,0,0,.411-.306A5.872,5.872,0,0,0,7.868,3.353Z" transform="translate(28.731 0)" fill="#faaf19" stroke="#faaf19" stroke-width="2"/>
    <path id="Star_fill-1-3" data-name="Star_fill-1" d="M7.868,3.353C8.718,1.235,9.143.176,9.833.029a1.323,1.323,0,0,1,.551,0c.69.147,1.115,1.206,1.965,3.324A5.873,5.873,0,0,0,13.525,5.57a2.647,2.647,0,0,0,.411.306,5.937,5.937,0,0,0,2.479.49c2.208.2,3.313.3,3.65.926a1.325,1.325,0,0,1,.141.418c.112.705-.7,1.444-2.324,2.921l-.451.41a5.847,5.847,0,0,0-1.358,1.467,2.647,2.647,0,0,0-.261.824,5.854,5.854,0,0,0,.264,1.981l.079.358c.4,1.8.6,2.695.349,3.137a1.323,1.323,0,0,1-1.09.672c-.506.024-1.219-.557-2.646-1.72a6.23,6.23,0,0,0-1.932-1.3,2.646,2.646,0,0,0-1.459,0,6.229,6.229,0,0,0-1.932,1.3C6.02,18.923,5.307,19.5,4.8,19.48a1.323,1.323,0,0,1-1.09-.672c-.249-.442-.049-1.34.349-3.137l.079-.358A5.849,5.849,0,0,0,4.4,13.332a2.647,2.647,0,0,0-.261-.824,5.849,5.849,0,0,0-1.358-1.467l-.451-.41C.71,9.154-.1,8.415.01,7.71a1.323,1.323,0,0,1,.14-.418c.337-.63,1.441-.729,3.65-.926a5.937,5.937,0,0,0,2.479-.49,2.646,2.646,0,0,0,.411-.306A5.872,5.872,0,0,0,7.868,3.353Z" transform="translate(57.462 0)" fill="#faaf19" stroke="#faaf19" stroke-width="2"/>
    <path id="Star_fill-1-4" data-name="Star_fill-1" d="M7.868,3.353C8.718,1.235,9.143.176,9.833.029a1.323,1.323,0,0,1,.551,0c.69.147,1.115,1.206,1.965,3.324A5.873,5.873,0,0,0,13.525,5.57a2.647,2.647,0,0,0,.411.306,5.937,5.937,0,0,0,2.479.49c2.208.2,3.313.3,3.65.926a1.325,1.325,0,0,1,.141.418c.112.705-.7,1.444-2.324,2.921l-.451.41a5.847,5.847,0,0,0-1.358,1.467,2.647,2.647,0,0,0-.261.824,5.854,5.854,0,0,0,.264,1.981l.079.358c.4,1.8.6,2.695.349,3.137a1.323,1.323,0,0,1-1.09.672c-.506.024-1.219-.557-2.646-1.72a6.23,6.23,0,0,0-1.932-1.3,2.646,2.646,0,0,0-1.459,0,6.229,6.229,0,0,0-1.932,1.3C6.02,18.923,5.307,19.5,4.8,19.48a1.323,1.323,0,0,1-1.09-.672c-.249-.442-.049-1.34.349-3.137l.079-.358A5.849,5.849,0,0,0,4.4,13.332a2.647,2.647,0,0,0-.261-.824,5.849,5.849,0,0,0-1.358-1.467l-.451-.41C.71,9.154-.1,8.415.01,7.71a1.323,1.323,0,0,1,.14-.418c.337-.63,1.441-.729,3.65-.926a5.937,5.937,0,0,0,2.479-.49,2.646,2.646,0,0,0,.411-.306A5.872,5.872,0,0,0,7.868,3.353Z" transform="translate(86.193 0)" fill="#faaf19" stroke="#faaf19" stroke-width="2"/>
    <path id="Star_fill-1-5" data-name="Star_fill-1" d="M7.868,3.353C8.718,1.235,9.143.176,9.833.029a1.323,1.323,0,0,1,.551,0c.69.147,1.115,1.206,1.965,3.324A5.873,5.873,0,0,0,13.525,5.57a2.647,2.647,0,0,0,.411.306,5.937,5.937,0,0,0,2.479.49c2.208.2,3.313.3,3.65.926a1.325,1.325,0,0,1,.141.418c.112.705-.7,1.444-2.324,2.921l-.451.41a5.847,5.847,0,0,0-1.358,1.467,2.647,2.647,0,0,0-.261.824,5.854,5.854,0,0,0,.264,1.981l.079.358c.4,1.8.6,2.695.349,3.137a1.323,1.323,0,0,1-1.09.672c-.506.024-1.219-.557-2.646-1.72a6.23,6.23,0,0,0-1.932-1.3,2.646,2.646,0,0,0-1.459,0,6.229,6.229,0,0,0-1.932,1.3C6.02,18.923,5.307,19.5,4.8,19.48a1.323,1.323,0,0,1-1.09-.672c-.249-.442-.049-1.34.349-3.137l.079-.358A5.849,5.849,0,0,0,4.4,13.332a2.647,2.647,0,0,0-.261-.824,5.849,5.849,0,0,0-1.358-1.467l-.451-.41C.71,9.154-.1,8.415.01,7.71a1.323,1.323,0,0,1,.14-.418c.337-.63,1.441-.729,3.65-.926a5.937,5.937,0,0,0,2.479-.49,2.646,2.646,0,0,0,.411-.306A5.872,5.872,0,0,0,7.868,3.353Z" transform="translate(114.924 0)" fill="#faaf19" stroke="#faaf19" stroke-width="2"/>
  </g>
</svg>
